/// converted from http://www.dafont.com/dominator.font with http://typeface.neocracy.org/fonts.html
if (_typeface_js && _typeface_js.loadFace) _typeface_js.loadFace({"glyphs":{"¦":{"x_min":0,"x_max":0,"ha":1500},"Ž":{"x_min":0,"x_max":0,"ha":1500},"Á":{"x_min":0,"x_max":0,"ha":1500},"Î":{"x_min":0,"x_max":0,"ha":1500},"e":{"x_min":2,"x_max":1003.390625,"ha":1114,"o":"m 239 595 q 191 539 191 595 l 191 361 q 317 313 270 361 q 379 223 349 268 q 470 175 415 175 l 1003 175 q 1003 -1 1003 -5 l 393 -1 q 270 43 311 -1 q 217 126 245 83 q 136 169 189 169 l 2 169 l 2 559 q 226 783 2 783 l 1002 783 l 1002 495 q 777 272 1002 272 l 449 272 l 449 461 l 764 461 q 813 514 813 461 q 813 595 815 592 l 239 595 "},"»":{"x_min":0,"x_max":0,"ha":1500},"∆":{"x_min":0,"x_max":0,"ha":1500},"ò":{"x_min":0,"x_max":0,"ha":1500},"^":{"x_min":0,"x_max":0,"ha":1500},"«":{"x_min":0,"x_max":0,"ha":1500},"∙":{"x_min":0,"x_max":0,"ha":1500},"í":{"x_min":0,"x_max":0,"ha":1500},"ˆ":{"x_min":0,"x_max":0,"ha":1500},"":{"x_min":0,"x_max":0,"ha":1500},"µ":{"x_min":0,"x_max":0,"ha":1500},"’":{"x_min":0,"x_max":0,"ha":1611},"-":{"x_min":2,"x_max":583.9375,"ha":692,"o":"m 583 297 l 2 297 l 2 486 l 583 486 l 583 297 "},"Q":{"x_min":0,"x_max":1001,"ha":1110,"o":"m 812 246 l 812 600 l 238 600 q 190 545 190 600 l 190 192 l 763 192 q 812 246 812 192 m 0 3 l 0 565 q 54 734 0 680 q 226 789 108 789 l 1001 789 l 1001 226 q 776 3 1001 3 l 622 3 q 572 -102 613 -59 l 390 -283 q 265 -158 355 -249 l 393 -32 q 413 3 408 -16 l 0 3 "},"M":{"x_min":2,"x_max":1413,"ha":1525,"o":"m 1413 783 l 1413 -1 l 1224 -1 l 1224 594 l 1214 594 q 1062 449 1132 594 q 937 177 1000 313 q 718 24 849 30 l 701 22 q 475 163 564 16 q 350 442 413 302 q 200 594 284 594 l 191 594 l 191 -1 l 2 -1 l 2 783 l 208 783 q 467 636 365 783 q 595 361 511 570 q 707 213 654 213 q 831 361 772 213 q 954 636 921 584 q 1206 783 1050 783 l 1413 783 "},"œ":{"x_min":0,"x_max":0,"ha":1500},"{":{"x_min":0,"x_max":0,"ha":1500},"¼":{"x_min":0,"x_max":0,"ha":1500},"#":{"x_min":0,"x_max":0,"ha":1500},"Ê":{"x_min":0,"x_max":0,"ha":1500},")":{"x_min":-2,"x_max":321.609375,"ha":540,"o":"m -2 872 l 82 872 q 131 816 131 872 l 131 -34 q 82 -88 131 -88 l -2 -88 l -2 -278 l 95 -278 q 321 -54 321 -278 l 321 836 q 95 1060 321 1060 l -2 1060 l -2 872 "},"Å":{"x_min":0,"x_max":0,"ha":1500},"⋲":{"x_min":0,"x_max":0,"ha":1500},"¸":{"x_min":0,"x_max":0,"ha":1500},"a":{"x_min":1,"x_max":1002,"ha":1114,"o":"m 1002 -1 l 813 -1 l 813 539 q 764 595 813 595 l 239 595 q 190 539 190 595 l 190 361 q 316 313 270 361 q 380 223 348 268 q 469 175 416 175 l 623 175 q 623 -1 623 -5 l 392 -1 q 270 43 312 -1 q 216 126 244 83 q 135 169 188 169 l 1 169 l 1 559 q 227 783 1 783 l 792 783 q 1002 559 1002 783 l 1002 -1 "},"=":{"x_min":2,"x_max":583.9375,"ha":692,"o":"m 583 208 l 2 208 l 2 397 l 583 397 l 583 208 m 583 476 l 2 476 l 2 665 l 583 665 l 583 476 "},"˚":{"x_min":0,"x_max":0,"ha":1500},"ú":{"x_min":0,"x_max":0,"ha":1500},"¯":{"x_min":0,"x_max":0,"ha":1500},"Z":{"x_min":1,"x_max":996.828125,"ha":1108,"o":"m 1 782 l 1 594 l 807 594 q 807 540 809 591 q 757 486 807 486 l 226 486 q 1 261 1 486 l 1 0 l 996 0 l 996 189 l 191 189 q 191 241 188 190 q 239 297 191 297 l 773 297 q 996 520 996 297 l 996 782 l 1 782 "},"u":{"x_min":1,"x_max":1001,"ha":1110,"o":"m 1 222 l 1 783 l 190 783 l 190 242 q 240 188 190 188 l 762 188 q 811 242 811 188 l 811 783 l 1001 783 l 1001 222 q 774 -1 1001 -1 l 227 -1 q 1 222 1 -1 "},"k":{"x_min":1,"x_max":1004,"ha":1113,"o":"m 1004 520 q 952 391 1004 445 q 1004 262 1004 341 l 1004 1 l 814 1 l 814 242 q 773 297 814 291 l 191 297 l 191 1 l 1 1 l 1 781 l 191 781 l 191 486 l 773 486 q 814 537 814 491 l 814 615 l 1004 615 l 1004 520 "},"Ù":{"x_min":0,"x_max":0,"ha":1500},"¢":{"x_min":0,"x_max":0,"ha":1500},"":{"x_min":0,"x_max":0,"ha":1500},"é":{"x_min":0,"x_max":0,"ha":1500},"":{"x_min":0,"x_max":0,"ha":1500},"B":{"x_min":0,"x_max":1003,"ha":1113,"o":"m 772 486 q 813 537 813 491 q 764 593 813 593 l 189 593 l 189 486 l 772 486 m 772 297 l 189 297 l 189 190 l 764 190 q 813 242 813 190 q 772 297 813 291 m 1003 521 q 950 391 1003 445 q 1003 262 1003 341 l 1003 213 q 766 1 1003 1 l 0 1 l 0 781 l 766 781 q 1003 568 1003 781 l 1003 521 "},"…":{"x_min":0,"x_max":0,"ha":1500},"H":{"x_min":2,"x_max":1001,"ha":1110,"o":"m 812 783 l 1001 783 l 1001 -1 l 812 -1 l 812 308 l 191 308 l 191 -1 l 2 -1 l 2 783 l 191 783 l 191 497 l 812 497 l 812 783 "},"î":{"x_min":0,"x_max":0,"ha":1500},"−":{"x_min":0,"x_max":0,"ha":1500},"≠":{"x_min":0,"x_max":0,"ha":1500},"¥":{"x_min":0,"x_max":0,"ha":1500},"U":{"x_min":2,"x_max":1001,"ha":1110,"o":"m 2 222 l 2 783 l 191 783 l 191 242 q 239 188 191 188 l 763 188 q 812 242 812 188 l 812 783 l 1001 783 l 1001 222 q 774 -1 1001 -1 l 227 -1 q 2 222 2 -1 "},"Ñ":{"x_min":0,"x_max":0,"ha":1500},"F":{"x_min":2,"x_max":1002,"ha":1113,"o":"m 2 1 l 2 781 l 1002 781 l 1002 593 l 191 593 l 191 424 l 827 424 l 827 235 l 191 235 l 191 1 l 2 1 "},"*":{"x_min":0,"x_max":0,"ha":1500},"†":{"x_min":0,"x_max":0,"ha":1500},"°":{"x_min":0,"x_max":0,"ha":1500},"å":{"x_min":0,"x_max":0,"ha":1500},"0":{"x_min":1,"x_max":1002,"ha":1111,"o":"m 813 607 l 468 607 q 382 560 416 607 q 316 469 348 514 q 190 421 270 421 l 190 242 q 239 188 190 188 l 764 188 q 813 242 813 188 l 813 607 m 1002 783 l 1002 222 q 792 -1 1002 -1 l 227 -1 q 1 222 1 -1 l 1 614 l 135 614 q 217 658 188 614 q 270 740 243 698 q 392 783 311 783 l 1002 783 "},"":{"x_min":0,"x_max":0,"ha":1500},"”":{"x_min":0,"x_max":0,"ha":1611},"ö":{"x_min":0,"x_max":0,"ha":1500},"Õ":{"x_min":0,"x_max":0,"ha":1500},"þ":{"x_min":0,"x_max":0,"ha":1500},"]":{"x_min":0,"x_max":0,"ha":1500},"8":{"x_min":8,"x_max":1016,"ha":1125,"o":"m 827 597 l 246 597 q 198 541 198 597 q 246 483 198 483 l 778 483 q 827 537 827 483 l 827 597 m 198 186 l 778 186 q 827 240 827 186 q 778 294 827 294 l 246 294 q 198 240 198 294 l 198 186 m 1016 259 l 1016 220 q 791 -3 1016 -3 l 8 -3 l 8 259 q 48 388 8 319 q 8 518 8 457 l 8 561 q 234 785 8 785 l 1016 785 l 1016 518 q 978 388 1016 455 q 1016 259 1016 322 "},"R":{"x_min":2,"x_max":1053.078125,"ha":1115,"o":"m 191 436 l 765 436 q 814 490 814 436 l 814 535 q 765 590 814 590 l 191 590 l 191 436 m 2 779 l 778 779 q 1003 555 1003 779 l 1003 470 q 800 250 1003 250 q 1052 3 799 247 q 983 3 1061 3 q 855 3 905 3 q 785 3 833 3 l 652 140 q 536 222 595 197 q 389 247 478 247 l 191 247 l 191 3 l 2 3 l 2 779 "},"o":{"x_min":1,"x_max":1002,"ha":1114,"o":"m 813 241 l 813 595 l 239 595 q 191 539 191 595 l 191 188 l 764 188 q 813 241 813 188 m 1 -1 l 1 559 q 54 729 1 676 q 227 783 107 783 l 1002 783 l 1002 222 q 777 -1 1002 -1 l 1 -1 "},"5":{"x_min":1,"x_max":997,"ha":1104,"o":"m 997 783 l 997 595 l 190 595 q 190 540 187 592 q 238 486 190 486 l 771 486 q 997 261 997 486 l 997 0 l 1 0 l 1 189 l 807 189 q 807 241 809 190 q 758 297 807 297 l 224 297 q 1 521 1 297 l 1 783 l 997 783 "},"õ":{"x_min":0,"x_max":0,"ha":1500},",":{"x_min":-2,"x_max":188,"ha":299,"o":"m -2 169 l 188 169 l 188 -183 l -2 -1 l -2 169 "},"d":{"x_min":4,"x_max":1005,"ha":1114,"o":"m 194 188 l 766 188 q 815 242 815 188 l 815 421 q 688 469 735 421 q 626 559 658 514 q 535 607 589 607 l 194 607 l 194 188 m 4 783 l 612 783 q 735 740 694 783 q 787 658 762 698 q 868 614 816 614 l 1005 614 l 1005 222 q 778 -1 1005 -1 l 4 -1 l 4 783 "},"\"":{"x_min":1,"x_max":448,"ha":543,"o":"m 1 650 l 1 947 l 195 947 l 195 725 l 1 650 m 254 650 l 254 947 l 448 947 l 448 725 l 254 650 "},"˙":{"x_min":0,"x_max":0,"ha":1500},"ê":{"x_min":0,"x_max":0,"ha":1500},"„":{"x_min":0,"x_max":0,"ha":1500},"Â":{"x_min":0,"x_max":0,"ha":1500},"Í":{"x_min":0,"x_max":0,"ha":1500},"´":{"x_min":0,"x_max":0,"ha":1500},"Ú":{"x_min":0,"x_max":0,"ha":1500},"Ý":{"x_min":0,"x_max":0,"ha":1500},"Ω":{"x_min":0,"x_max":0,"ha":1500},"Ö":{"x_min":0,"x_max":0,"ha":1500},"z":{"x_min":-3,"x_max":992.84375,"ha":1104,"o":"m -3 782 l -3 594 l 802 594 q 802 540 805 591 q 753 486 802 486 l 220 486 q -3 261 -3 486 l -3 0 l 992 0 l 992 189 l 185 189 q 185 241 184 190 q 235 297 185 297 l 767 297 q 992 520 992 297 l 992 782 l -3 782 "},"™":{"x_min":0,"x_max":0,"ha":1500},"ã":{"x_min":0,"x_max":0,"ha":1500},"æ":{"x_min":0,"x_max":0,"ha":1500},"É":{"x_min":0,"x_max":0,"ha":1500},"~":{"x_min":0,"x_max":0,"ha":1500},"³":{"x_min":0,"x_max":0,"ha":1500},"¡":{"x_min":0,"x_max":0,"ha":1500},"[":{"x_min":0,"x_max":0,"ha":1500},"%":{"x_min":0,"x_max":0,"ha":1500},"P":{"x_min":1,"x_max":1004,"ha":1113,"o":"m 191 436 l 765 436 q 814 490 814 436 l 814 535 q 765 590 814 590 l 191 590 l 191 436 m 1 779 l 777 779 q 1004 555 1004 779 l 1004 470 q 777 247 1004 247 l 191 247 l 191 3 l 1 3 l 1 779 "},"∏":{"x_min":0,"x_max":0,"ha":1500},"_":{"x_min":2,"x_max":896.4375,"ha":1003,"o":"m 896 -3 l 2 -3 l 2 186 l 896 186 l 896 -3 "},"ñ":{"x_min":0,"x_max":0,"ha":1500},"‚":{"x_min":0,"x_max":0,"ha":1500},"Æ":{"x_min":0,"x_max":0,"ha":1500},"ª":{"x_min":0,"x_max":0,"ha":1500},"Œ":{"x_min":0,"x_max":0,"ha":1500},"T":{"x_min":1,"x_max":1005.171875,"ha":1118,"o":"m 1 594 l 1 783 l 1005 783 l 1005 594 l 598 594 l 598 -1 l 408 -1 l 408 594 l 1 594 "},"š":{"x_min":0,"x_max":0,"ha":1500},"Þ":{"x_min":0,"x_max":0,"ha":1500},"j":{"x_min":0,"x_max":769,"ha":879,"o":"m 769 783 l 769 222 q 542 -1 769 -1 l 0 -1 l 0 188 l 530 188 q 579 242 579 188 l 579 783 l 769 783 "},"1":{"x_min":1,"x_max":382,"ha":492,"o":"m 382 -1 l 193 -1 l 193 594 l 1 594 l 1 783 l 382 783 l 382 -1 "},"›":{"x_min":0,"x_max":0,"ha":1500},"<":{"x_min":0,"x_max":0,"ha":1525},"t":{"x_min":1,"x_max":1005.171875,"ha":1114,"o":"m 649 594 q 509 438 569 594 q 389 152 407 182 q 139 -1 298 -1 l 1 -1 l 1 188 l 131 188 q 237 264 191 188 q 303 430 266 314 q 363 594 345 556 l 1 594 l 1 783 l 1005 783 l 1005 594 l 649 594 "},"¬":{"x_min":0,"x_max":0,"ha":1500},"ù":{"x_min":0,"x_max":0,"ha":1500},"ï":{"x_min":0,"x_max":0,"ha":1500},"Ò":{"x_min":0,"x_max":0,"ha":1500},"&":{"x_min":0,"x_max":0,"ha":1500},"˝":{"x_min":0,"x_max":0,"ha":1500},"I":{"x_min":-2,"x_max":188,"ha":299,"o":"m -2 783 l 188 783 l 188 -1 l -2 -1 l -2 783 "},"G":{"x_min":2,"x_max":1003,"ha":1114,"o":"m 1003 783 l 1003 594 l 239 594 q 191 539 191 594 l 191 362 q 317 313 271 362 q 382 222 349 269 q 469 175 415 175 l 814 175 l 814 345 l 1003 345 q 1003 172 1003 12 q 1003 -1 1003 71 l 393 -1 q 271 43 311 -1 q 217 126 244 84 q 136 169 189 169 l 2 169 l 2 559 q 226 783 2 783 l 1003 783 "},"`":{"x_min":0,"x_max":0,"ha":1500},"·":{"x_min":0,"x_max":0,"ha":1500},"¿":{"x_min":0,"x_max":0,"ha":1500},"º":{"x_min":0,"x_max":0,"ha":1500},"∞":{"x_min":0,"x_max":0,"ha":1500},";":{"x_min":1,"x_max":191,"ha":299,"o":"m 1 169 l 191 169 l 191 -188 l 1 -1 l 1 169 m 1 586 l 191 586 l 191 415 l 1 415 l 1 586 "},"6":{"x_min":2,"x_max":1003.390625,"ha":1113,"o":"m 239 188 q 191 242 191 188 l 191 421 q 317 469 271 421 q 382 560 349 514 q 470 607 415 607 l 839 607 q 839 783 840 787 l 393 783 q 271 740 313 783 q 218 658 245 698 q 136 613 189 613 l 2 613 l 2 222 q 228 -1 2 -1 l 1003 -1 l 1003 286 q 777 510 1003 510 l 455 510 l 455 323 l 764 323 q 813 267 813 323 q 813 188 815 189 l 239 188 "},"n":{"x_min":1,"x_max":1003.78125,"ha":1114,"o":"m 189 -1 l 189 419 q 316 465 270 419 q 381 552 348 508 q 469 595 414 595 l 764 595 q 813 541 813 595 l 813 -1 l 1003 -1 l 1003 560 q 777 783 1003 783 l 410 783 q 282 738 328 783 q 220 655 252 698 q 135 612 188 612 l 1 612 l 1 -1 l 189 -1 "},"¤":{"x_min":0,"x_max":0,"ha":1500},"":{"x_min":0,"x_max":0,"ha":1500},"∂":{"x_min":0,"x_max":0,"ha":1500},"p":{"x_min":-7,"x_max":996,"ha":1103,"o":"m 182 436 l 757 436 q 806 490 806 436 l 806 535 q 757 590 806 590 l 182 590 l 182 436 m -7 779 l 769 779 q 996 555 996 779 l 996 470 q 769 247 996 247 l 182 247 l 182 3 l -7 3 l -7 779 "},"‡":{"x_min":0,"x_max":0,"ha":1500},"√":{"x_min":0,"x_max":0,"ha":1500},"S":{"x_min":2,"x_max":1010,"ha":1121,"o":"m 1010 259 l 1010 220 q 785 -3 1010 -3 l 2 -3 l 2 186 l 772 186 q 821 240 821 186 q 772 294 821 294 l 228 294 q 2 517 2 294 l 2 561 q 228 785 2 785 l 1010 785 l 1010 597 l 240 597 q 192 541 192 597 l 192 537 q 240 483 192 483 l 785 483 q 1010 259 1010 483 "},"/":{"x_min":-2.875,"x_max":703.953125,"ha":785,"o":"m 494 783 l 703 783 l 206 -1 l -2 -1 l 494 783 "},"y":{"x_min":-4,"x_max":1003,"ha":1113,"o":"m 765 431 q 814 485 814 431 l 814 783 l 1003 783 l 1003 465 q 777 243 1003 243 l 586 243 l 586 -1 l 397 -1 l 397 243 l 222 243 q -4 465 -4 243 l -4 783 l 186 783 l 186 485 q 234 431 186 431 l 765 431 "},"≈":{"x_min":0,"x_max":0,"ha":1500},"g":{"x_min":2,"x_max":1004.78125,"ha":1114,"o":"m 1003 783 l 1003 594 l 240 594 q 192 539 192 594 l 192 362 q 318 313 271 362 q 382 222 348 269 q 471 175 416 175 l 814 175 l 814 345 l 1003 345 q 1004 172 1003 12 q 1003 -1 1004 71 l 394 -1 q 271 43 312 -1 q 218 126 246 84 q 138 169 190 169 l 2 169 l 2 559 q 227 783 2 783 l 1003 783 "},"²":{"x_min":0,"x_max":0,"ha":1500},"ë":{"x_min":0,"x_max":0,"ha":1500},"–":{"x_min":0,"x_max":0,"ha":1500},"ƒ":{"x_min":0,"x_max":0,"ha":1500},"J":{"x_min":2,"x_max":771,"ha":883,"o":"m 771 783 l 771 222 q 544 -1 771 -1 l 2 -1 l 2 188 l 533 188 q 582 242 582 188 l 582 783 l 771 783 "},"Ã":{"x_min":0,"x_max":0,"ha":1500},"‐":{"x_min":2,"x_max":583.9375,"ha":692,"o":"m 583 297 l 2 297 l 2 486 l 583 486 l 583 297 "},"©":{"x_min":0,"x_max":0,"ha":1500},"˘":{"x_min":0,"x_max":0,"ha":1500},"≥":{"x_min":0,"x_max":0,"ha":1500},"D":{"x_min":0,"x_max":1003,"ha":1110,"o":"m 190 188 l 764 188 q 813 241 813 188 l 813 539 q 764 595 813 595 l 190 595 l 190 188 m 1003 222 q 776 -1 1003 -1 l 0 -1 l 0 783 l 776 783 q 1003 559 1003 783 l 1003 222 "},"":{"x_min":0,"x_max":0,"ha":0},"ÿ":{"x_min":0,"x_max":0,"ha":1500},"ł":{"x_min":0,"x_max":0,"ha":1500},"Ł":{"x_min":0,"x_max":0,"ha":1500},"$":{"x_min":0,"x_max":0,"ha":1500},"w":{"x_min":2,"x_max":1569,"ha":1681,"o":"m 880 783 l 880 362 q 1010 316 959 362 q 1088 232 1049 275 q 1200 187 1134 187 l 1331 187 q 1380 242 1380 187 l 1380 783 l 1569 783 l 1569 222 q 1343 -1 1569 -1 l 1100 -1 q 985 32 1028 -1 q 929 101 961 50 q 874 158 900 145 q 654 -1 843 -1 l 411 -1 q 284 43 329 -1 q 221 126 253 84 q 136 169 189 169 l 2 169 l 2 783 l 191 783 l 191 362 q 328 316 271 362 q 413 231 370 275 q 511 187 457 187 l 642 187 q 691 242 691 187 l 691 783 l 880 783 "},"\\":{"x_min":0,"x_max":0,"ha":1611},"∫":{"x_min":0,"x_max":0,"ha":1500},"Ì":{"x_min":0,"x_max":0,"ha":1500},"Ç":{"x_min":0,"x_max":0,"ha":1500},"C":{"x_min":2,"x_max":1010.328125,"ha":1122,"o":"m 2 222 l 2 559 q 228 783 2 783 l 1010 783 l 1010 595 l 240 595 q 192 539 192 595 l 192 241 q 240 188 192 188 l 1010 188 l 1010 -1 l 228 -1 q 2 222 2 -1 "},"!":{"x_min":0,"x_max":190,"ha":300,"o":"m 0 783 l 190 783 l 190 252 l 0 252 l 0 783 m 0 153 l 190 153 l 190 0 l 0 0 l 0 153 "},"ç":{"x_min":0,"x_max":0,"ha":1500},"È":{"x_min":0,"x_max":0,"ha":1500},"X":{"x_min":1,"x_max":1004,"ha":1113,"o":"m 1004 521 q 952 391 1004 447 q 1004 262 1004 341 l 1004 1 l 815 1 l 815 242 q 773 297 815 291 l 231 297 q 191 242 191 291 q 191 146 191 231 q 191 1 191 131 l 1 1 l 1 262 q 52 391 1 341 q 1 521 1 447 l 1 781 l 191 781 l 191 538 q 231 486 191 491 l 773 486 q 815 538 815 491 l 815 781 l 1004 781 l 1004 521 "},"ô":{"x_min":0,"x_max":0,"ha":1500},"}":{"x_min":0,"x_max":0,"ha":1500},"â":{"x_min":0,"x_max":0,"ha":1500},"ø":{"x_min":0,"x_max":0,"ha":1500},"Δ":{"x_min":0,"x_max":0,"ha":1500},"Ä":{"x_min":0,"x_max":0,"ha":1500},"‰":{"x_min":0,"x_max":0,"ha":1500},"N":{"x_min":2,"x_max":980,"ha":1090,"o":"m 790 783 l 980 783 l 980 -1 l 723 -1 q 491 152 578 -1 q 372 440 488 155 q 225 594 310 594 l 191 594 l 191 -1 l 2 -1 l 2 783 l 234 783 q 493 628 393 783 q 621 343 532 569 q 744 189 682 189 l 790 189 l 790 783 "},"—":{"x_min":0,"x_max":0,"ha":1500},"2":{"x_min":1,"x_max":996.828125,"ha":1108,"o":"m 1 782 l 1 594 l 806 594 q 806 540 809 591 q 757 486 806 486 l 224 486 q 1 261 1 486 l 1 0 l 996 0 l 996 189 l 189 189 q 189 241 188 190 q 238 297 189 297 l 771 297 q 996 520 996 297 l 996 782 l 1 782 "},"⁄":{"x_min":0,"x_max":0,"ha":1500},"ü":{"x_min":0,"x_max":0,"ha":1500},"":{"x_min":0,"x_max":0,"ha":1500},"Ó":{"x_min":0,"x_max":0,"ha":1500},"˜":{"x_min":0,"x_max":0,"ha":1500},"ˇ":{"x_min":0,"x_max":0,"ha":1500},"Ÿ":{"x_min":0,"x_max":0,"ha":1500},"ß":{"x_min":0,"x_max":0,"ha":1500},"Ω":{"x_min":0,"x_max":0,"ha":1500},"s":{"x_min":3.296875,"x_max":1004,"ha":1114,"o":"m 4 596 l 766 596 q 815 540 815 596 l 815 361 q 688 313 735 361 q 626 223 656 268 q 535 175 590 175 l 4 175 q 4 -1 2 -5 l 612 -1 q 735 43 694 -1 q 788 126 760 83 q 869 169 816 169 l 1004 169 l 1004 559 q 779 783 1004 783 l 4 783 l 4 596 "},"?":{"x_min":0,"x_max":0,"ha":1611},"c":{"x_min":1,"x_max":1003.09375,"ha":1114,"o":"m 1002 595 l 239 595 q 191 539 191 595 l 191 361 q 317 313 270 361 q 379 223 348 268 q 470 175 416 175 l 1002 175 q 1002 -1 1003 -5 l 394 -1 q 270 43 312 -1 q 219 124 244 83 q 137 169 189 169 l 1 169 l 1 559 q 227 783 1 783 l 1002 783 l 1002 595 "},"¶":{"x_min":0,"x_max":0,"ha":1500},"•":{"x_min":0,"x_max":0,"ha":1500},"(":{"x_min":-3,"x_max":319,"ha":540,"o":"m 319 872 l 234 872 q 186 816 186 872 l 186 -34 q 234 -89 186 -89 l 319 -89 l 319 -278 l 221 -278 q -3 -54 -3 -278 l -3 836 q 221 1060 -3 1060 l 319 1060 l 319 872 "},"◊":{"x_min":0,"x_max":0,"ha":1500},"­":{"x_min":0,"x_max":0,"ha":1500},":":{"x_min":1,"x_max":191,"ha":299,"o":"m 1 170 l 191 170 l 191 -1 l 1 -1 l 1 170 m 1 586 l 191 586 l 191 415 l 1 415 l 1 586 "},"Û":{"x_min":0,"x_max":0,"ha":1500},"V":{"x_min":0,"x_max":1003,"ha":1114,"o":"m 190 783 l 190 362 q 326 316 269 362 q 409 232 367 275 q 509 187 456 187 l 765 187 q 814 242 814 187 l 814 783 l 1003 783 l 1003 222 q 777 -1 1003 -1 l 409 -1 q 282 43 327 -1 q 222 124 252 84 q 136 169 187 169 l 0 169 l 0 783 l 190 783 "}," ":{"x_min":0,"x_max":0,"ha":1500},"":{"x_min":0,"x_max":0,"ha":1500},"@":{"x_min":0,"x_max":1589,"ha":1700,"o":"m 1289 124 l 1345 124 q 1400 172 1400 124 l 1400 609 q 1345 658 1400 658 l 243 658 q 188 609 188 658 l 188 104 l 0 104 l 0 622 q 223 847 0 847 l 1365 847 q 1589 622 1589 847 l 1589 144 q 1365 -65 1589 -65 l 1100 -65 l 1100 317 q 1051 373 1100 373 l 526 373 q 478 317 478 373 l 478 297 q 604 248 557 297 q 666 159 634 204 q 757 111 702 111 l 909 111 q 909 -65 911 -69 l 680 -65 q 557 -20 598 -65 q 505 61 530 19 q 424 104 476 104 l 288 104 l 288 337 q 514 561 288 561 l 1080 561 q 1289 337 1289 561 l 1289 124 "},"¾":{"x_min":0,"x_max":0,"ha":1500},"i":{"x_min":0,"x_max":190,"ha":300,"o":"m 0 783 l 190 783 l 190 -1 l 0 -1 l 0 783 "},"≤":{"x_min":0,"x_max":0,"ha":1500},"m":{"x_min":1,"x_max":1572,"ha":1682,"o":"m 883 -1 l 694 -1 l 694 540 q 641 595 694 595 l 469 595 q 378 549 414 595 q 316 465 348 508 q 190 420 270 420 l 190 -1 l 1 -1 l 1 613 l 135 613 q 220 655 188 613 q 282 738 252 698 q 409 783 328 783 l 653 783 q 813 740 753 783 q 873 622 873 697 q 930 663 898 622 q 999 741 977 722 q 1123 783 1052 783 l 1345 783 q 1572 560 1572 783 l 1572 -1 l 1383 -1 l 1383 540 q 1333 595 1383 595 l 1162 595 q 1071 549 1108 595 q 1009 465 1041 508 q 883 420 962 420 l 883 -1 "},"ž":{"x_min":0,"x_max":0,"ha":1500},"á":{"x_min":0,"x_max":0,"ha":1500},"K":{"x_min":1,"x_max":1004,"ha":1113,"o":"m 1004 521 q 952 391 1004 445 q 1004 262 1004 341 l 1004 1 l 814 1 l 814 242 q 772 297 814 291 l 191 297 l 191 1 l 1 1 l 1 781 l 191 781 l 191 486 l 772 486 q 814 537 814 491 l 814 781 l 1004 781 l 1004 521 "},"7":{"x_min":-2,"x_max":999,"ha":1108,"o":"m 761 600 l -2 600 q -2 788 -2 694 l 774 788 q 999 564 999 788 l 999 -6 l 810 -6 l 810 544 q 761 600 810 600 "},"¨":{"x_min":0,"x_max":0,"ha":1500},"Y":{"x_min":0,"x_max":1007,"ha":1117,"o":"m 769 431 q 818 485 818 431 l 818 783 l 1007 783 l 1007 465 q 781 243 1007 243 l 590 243 l 590 -1 l 401 -1 l 401 243 l 226 243 q 0 465 0 243 l 0 783 l 190 783 l 190 485 q 238 431 190 431 l 769 431 "},"E":{"x_min":0,"x_max":1000,"ha":1108,"o":"m 1000 1 l 0 1 l 0 781 l 1000 781 l 1000 593 l 189 593 l 189 486 l 825 486 l 825 297 l 189 297 l 189 190 l 1000 190 l 1000 1 "},"Ô":{"x_min":0,"x_max":0,"ha":1500},"Ï":{"x_min":0,"x_max":0,"ha":1500},"‹":{"x_min":0,"x_max":0,"ha":1500},"±":{"x_min":0,"x_max":0,"ha":1500},"ì":{"x_min":0,"x_max":0,"ha":1500},"|":{"x_min":0,"x_max":0,"ha":1500},"§":{"x_min":0,"x_max":0,"ha":1500},"q":{"x_min":4,"x_max":1005,"ha":1117,"o":"m 816 244 l 816 597 l 242 597 q 194 542 194 597 l 194 189 l 767 189 q 816 244 816 189 m 4 1 l 4 562 q 57 731 4 677 q 230 786 110 786 l 1005 786 l 1005 224 q 780 1 1005 1 l 626 1 q 574 -104 617 -62 l 394 -286 q 269 -161 359 -252 l 397 -33 q 417 1 412 -19 l 4 1 "},"b":{"x_min":0,"x_max":1001,"ha":1114,"o":"m 190 512 l 190 242 q 238 188 190 188 l 763 188 q 812 241 812 188 l 812 325 q 685 372 731 325 q 623 463 653 418 q 532 512 587 512 l 190 512 m 0 783 l 190 783 l 190 688 l 609 688 q 731 643 691 688 q 785 560 757 603 q 866 517 813 517 l 1001 517 l 1001 222 q 776 -1 1001 -1 l 209 -1 q 0 222 0 -1 l 0 783 "},"":{"x_min":0,"x_max":0,"ha":1500},"®":{"x_min":0,"x_max":0,"ha":1500},"":{"x_min":0,"x_max":0,"ha":1500},"L":{"x_min":2,"x_max":990.890625,"ha":1101,"o":"m 2 783 l 191 783 l 191 189 l 990 189 l 990 -1 l 2 -1 l 2 783 "},"":{"x_min":0,"x_max":0,"ha":1500}," ":{"x_min":0,"x_max":0,"ha":568},"∑":{"x_min":0,"x_max":0,"ha":1500},"À":{"x_min":0,"x_max":0,"ha":1500},"+":{"x_min":0,"x_max":0,"ha":1500},"½":{"x_min":0,"x_max":0,"ha":1500},"Ë":{"x_min":0,"x_max":0,"ha":1500},"'":{"x_min":0,"x_max":0,"ha":1500},"Š":{"x_min":0,"x_max":0,"ha":1500},"˛":{"x_min":0,"x_max":0,"ha":1500},"ð":{"x_min":0,"x_max":0,"ha":1500},"ı":{"x_min":0,"x_max":0,"ha":1500},"ä":{"x_min":0,"x_max":0,"ha":1500},"¹":{"x_min":0,"x_max":0,"ha":1500},"£":{"x_min":0,"x_max":0,"ha":1500},"W":{"x_min":1,"x_max":1568,"ha":1676,"o":"m 879 783 l 879 362 q 1016 316 959 362 q 1101 231 1058 275 q 1199 187 1145 187 l 1330 187 q 1379 242 1379 187 l 1379 783 l 1568 783 l 1568 222 q 1342 -1 1568 -1 l 1099 -1 q 984 32 1027 -1 q 928 101 960 50 q 873 158 899 145 q 653 -1 842 -1 l 410 -1 q 283 43 328 -1 q 220 126 252 84 q 135 169 188 169 l 1 169 l 1 783 l 190 783 l 190 362 q 327 316 270 362 q 412 231 369 275 q 510 187 456 187 l 641 187 q 690 242 690 187 l 690 783 l 879 783 "},"v":{"x_min":0,"x_max":1003,"ha":1114,"o":"m 190 783 l 190 362 q 327 316 269 362 q 409 232 367 275 q 511 187 456 187 l 765 187 q 814 242 814 187 l 814 783 l 1003 783 l 1003 222 q 777 -1 1003 -1 l 409 -1 q 283 43 329 -1 q 220 126 252 84 q 136 169 188 169 l 0 169 l 0 783 l 190 783 "},">":{"x_min":0,"x_max":0,"ha":1500},"û":{"x_min":0,"x_max":0,"ha":1500},"":{"x_min":0,"x_max":0,"ha":1500},"Ð":{"x_min":0,"x_max":0,"ha":1500},"ˉ":{"x_min":0,"x_max":0,"ha":1500},"r":{"x_min":1,"x_max":1003.78125,"ha":1114,"o":"m 191 -1 l 191 419 q 317 465 270 419 q 382 552 348 508 q 470 595 416 595 l 1003 595 l 1003 783 l 410 783 q 282 738 328 783 q 223 656 253 698 q 137 612 188 612 l 1 612 l 1 -1 l 191 -1 "},"x":{"x_min":1,"x_max":1004,"ha":1113,"o":"m 1004 521 q 952 391 1004 447 q 1004 262 1004 341 l 1004 1 l 814 1 l 814 242 q 772 297 814 291 l 231 297 q 190 242 190 291 l 190 1 l 1 1 l 1 262 q 52 391 1 341 q 1 521 1 447 l 1 781 l 190 781 l 190 538 q 231 486 190 491 l 772 486 q 814 538 812 491 l 814 781 l 1004 781 l 1004 521 "},"è":{"x_min":0,"x_max":0,"ha":1500},"Ø":{"x_min":0,"x_max":0,"ha":1500},"÷":{"x_min":0,"x_max":0,"ha":1500},"μ":{"x_min":0,"x_max":0,"ha":1500},"h":{"x_min":2,"x_max":1002,"ha":1114,"o":"m 813 783 l 1002 783 l 1002 -1 l 813 -1 l 813 308 l 191 308 l 191 -1 l 2 -1 l 2 783 l 191 783 l 191 497 l 813 497 l 813 783 "},".":{"x_min":-2,"x_max":188,"ha":299,"o":"m -2 169 l 188 169 l 188 -1 l -2 -1 l -2 169 "},"f":{"x_min":2,"x_max":1002,"ha":1113,"o":"m 2 1 l 2 781 l 1002 781 l 1002 593 l 192 593 l 192 424 l 828 424 l 828 235 l 192 235 l 192 1 l 2 1 "},"“":{"x_min":0,"x_max":0,"ha":1611},"A":{"x_min":1,"x_max":1001,"ha":1106,"o":"m 812 331 l 812 539 q 763 595 812 595 l 238 595 q 190 539 190 595 l 190 331 l 812 331 m 1001 -1 l 812 -1 l 812 142 l 190 142 l 190 -1 l 1 -1 l 1 559 q 226 783 1 783 l 792 783 q 1001 559 1001 783 l 1001 -1 "},"O":{"x_min":1,"x_max":1002,"ha":1114,"o":"m 813 241 l 813 595 l 239 595 q 191 539 191 595 l 191 188 l 764 188 q 813 241 813 188 m 1 -1 l 1 559 q 55 729 1 676 q 227 783 109 783 l 1002 783 l 1002 222 q 777 -1 1002 -1 l 1 -1 "},"π":{"x_min":0,"x_max":0,"ha":1500},"‘":{"x_min":0,"x_max":0,"ha":1611},"3":{"x_min":5,"x_max":1002,"ha":1113,"o":"m 1002 259 l 1002 220 q 777 -3 1002 -3 l 5 -3 l 5 186 l 764 186 q 813 240 813 186 q 764 294 813 294 l 221 294 l 221 483 l 764 483 q 813 537 813 483 l 813 597 l 5 597 l 5 785 l 1002 785 l 1002 518 q 964 388 1002 455 q 1002 259 1002 322 "},"9":{"x_min":-3,"x_max":998.390625,"ha":1110,"o":"m 761 596 q 810 540 810 596 l 810 361 q 683 313 729 361 q 619 223 651 268 q 530 175 584 175 l 269 175 q 269 -1 267 -5 l 606 -1 q 728 43 688 -1 q 783 126 755 83 q 863 169 810 169 l 998 169 l 998 559 q 773 783 998 783 l -3 783 l -3 466 q 223 243 -3 243 l 546 243 l 546 432 l 235 432 q 187 486 187 432 q 187 596 184 593 l 761 596 "},"l":{"x_min":2,"x_max":990.890625,"ha":1101,"o":"m 2 783 l 191 783 l 191 189 l 990 189 l 990 -1 l 2 -1 l 2 783 "},"":{"x_min":0,"x_max":0,"ha":1500},"4":{"x_min":2,"x_max":1003,"ha":1114,"o":"m 1003 -1 l 814 -1 l 814 244 l 394 244 q 271 287 312 244 q 219 369 244 329 q 138 414 189 414 l 2 414 l 2 783 l 192 783 l 192 607 q 318 558 271 607 q 382 466 348 513 q 471 419 416 419 l 814 419 l 814 783 l 1003 783 l 1003 -1 "},"Ü":{"x_min":0,"x_max":0,"ha":1500},"à":{"x_min":0,"x_max":0,"ha":1500},"ó":{"x_min":0,"x_max":0,"ha":1500}}}
